<svg width="158" height="31" viewBox="0 0 158 31" fill="none" xmlns="http://www.w3.org/2000/svg">
<path d="M14.1523 22.5293C14.1523 21.8913 14.7572 21.374 15.5032 21.374H24.1489C26.3871 21.374 28.2016 22.9257 28.2016 24.8398V28.7677C28.2016 29.4058 27.5968 29.923 26.8507 29.923H15.5032C14.7572 29.923 14.1523 29.4058 14.1523 28.7677V22.5293Z" fill="#4883B9"/>
<path d="M14.1523 14.1523C14.1523 12.2382 15.9668 10.6865 18.205 10.6865H24.1489C26.3871 10.6865 28.2016 12.2382 28.2016 14.1523V15.7697C28.2016 17.6838 26.3871 19.2355 24.1489 19.2355H15.5032C14.7572 19.2355 14.1523 18.7183 14.1523 18.0802V14.1523Z" fill="#49ABAB"/>
<path d="M14.3828 1.15527C14.3828 0.517231 14.9876 0 15.7337 0H24.3794C26.6176 0 28.4321 1.55169 28.4321 3.46581V5.08318C28.4321 6.99729 26.6176 8.54899 24.3794 8.54899H18.4355C16.1973 8.54899 14.3828 6.99729 14.3828 5.08318V1.15527Z" fill="#49ABAB"/>
<path d="M0 3.46581C0 1.55169 1.55169 0 3.4658 0H8.54899C10.4631 0 12.0148 1.55169 12.0148 3.46581V26.5712C12.0148 28.4853 10.4631 30.037 8.54899 30.037H3.46581C1.55169 30.037 0 28.4853 0 26.5712V3.46581Z" fill="#4883B9"/>
<path d="M46.2188 3.91108H60.009V8.12458H51.3788V12.6764H57.8364V16.7668H51.3788V25.5014H46.2188V3.91108Z" fill="#1F4062"/>
<path d="M67.8811 3.91108V21.4417H74.6404V25.5014H62.7211V3.91108H67.8811Z" fill="#1F4062"/>
<path d="M90.2884 21.6877H82.3824L81.115 25.5014H75.7136L83.3782 3.91108H89.353L97.0176 25.5014H91.5558L90.2884 21.6877ZM86.3354 9.72386L83.7403 17.628H88.9607L86.3354 9.72386Z" fill="#1F4062"/>
<path d="M118.301 3.91108V25.5014H113.141L104.51 12.1843V25.5014H99.3503V3.91108H104.51L113.141 17.2897V3.91108H118.301Z" fill="#1F4062"/>
<path d="M121.166 14.6755C121.166 13.0557 121.427 11.5794 121.95 10.2467C122.473 8.89346 123.208 7.73501 124.153 6.77134C125.099 5.78716 126.215 5.02853 127.503 4.49544C128.81 3.94184 130.249 3.66504 131.818 3.66504C133.085 3.66504 134.262 3.83932 135.348 4.18788C136.435 4.53644 137.41 5.03878 138.275 5.6949C139.141 6.35101 139.875 7.15065 140.478 8.09382C141.102 9.01648 141.565 10.0622 141.866 11.2309H136.193C135.751 10.3082 135.147 9.62134 134.383 9.17026C133.618 8.69868 132.743 8.46288 131.758 8.46288C130.973 8.46288 130.249 8.60641 129.585 8.89346C128.921 9.18051 128.358 9.60083 127.895 10.1544C127.432 10.6875 127.07 11.3436 126.809 12.1228C126.547 12.8814 126.416 13.7323 126.416 14.6755C126.416 15.6391 126.547 16.5003 126.809 17.2589C127.07 18.0176 127.432 18.6737 127.895 19.2273C128.358 19.7604 128.921 20.1704 129.585 20.4575C130.249 20.7445 130.973 20.8881 131.758 20.8881C132.743 20.8881 133.618 20.6625 134.383 20.2115C135.147 19.7399 135.751 19.0427 136.193 18.1201H141.866C141.565 19.2888 141.102 20.3447 140.478 21.2879C139.875 22.2106 139.141 22.9999 138.275 23.6561C137.41 24.2917 136.435 24.7838 135.348 25.1323C134.262 25.4809 133.085 25.6552 131.818 25.6552C130.249 25.6552 128.81 25.3886 127.503 24.8555C126.215 24.3224 125.099 23.574 124.153 22.6104C123.208 21.6262 122.473 20.4678 121.95 19.135C121.427 17.7818 121.166 16.2953 121.166 14.6755Z" fill="#1F4062"/>
<path d="M158.002 8.12458H150.186V12.4918H157.097V16.5516H150.186V21.2879H158.002V25.5014H145.026V3.91108H158.002V8.12458Z" fill="#1F4062"/>
</svg>
