<svg width="31" height="32" viewBox="0 0 31 32" fill="none" xmlns="http://www.w3.org/2000/svg">
<path d="M30.9994 16.258C30.9994 15.2154 30.907 14.2256 30.7487 13.2622H15.8359V19.2141H24.3745C23.9917 21.1673 22.87 22.8169 21.2072 23.9387V27.8978H26.3012C29.2838 25.1396 30.9994 21.0749 30.9994 16.258Z" fill="#4285F4"/>
<path d="M15.8372 31.7383C20.1131 31.7383 23.6895 30.3131 26.3025 27.898L21.2084 23.9388C19.7832 24.889 17.9752 25.4697 15.8372 25.4697C11.7065 25.4697 8.2093 22.6851 6.95557 18.924H1.70312V23.0019C4.30295 28.1751 9.64778 31.7383 15.8372 31.7383Z" fill="#34A853"/>
<path d="M6.95487 18.9238C6.62495 17.9736 6.45338 16.9574 6.45338 15.9017C6.45338 14.8459 6.63814 13.8297 6.95487 12.8795V8.80164H1.70243C0.620263 10.9396 0 13.3414 0 15.9017C0 18.4619 0.620263 20.8638 1.70243 23.0017L6.95487 18.9238Z" fill="#FBBC05"/>
<path d="M15.8372 6.33381C18.1731 6.33381 20.2583 7.13884 21.9079 8.70929L26.4213 4.19588C23.6895 1.63564 20.1131 0.0651855 15.8372 0.0651855C9.64778 0.0651855 4.30295 3.62841 1.70312 8.80167L6.95557 12.8796C8.2093 9.1184 11.7065 6.33381 15.8372 6.33381Z" fill="#EA4335"/>
</svg>
