<svg width="30" height="35" viewBox="0 0 30 35" fill="none" xmlns="http://www.w3.org/2000/svg">
<path d="M29.37 27.276C28.83 28.4995 28.194 29.6257 27.456 30.6605C26.448 32.0726 25.626 33.0484 24.99 33.5909C24.006 34.4812 22.95 34.9382 21.819 34.9618C21.009 34.9618 20.028 34.7348 18.891 34.2749C17.748 33.8179 16.698 33.5909 15.738 33.5909C14.73 33.5909 13.65 33.8179 12.495 34.2749C11.337 34.7348 10.407 34.9736 9.693 34.9971C8.61 35.0414 7.53 34.5726 6.45 33.5879C5.763 32.9983 4.902 31.9871 3.87 30.5543C2.763 29.0242 1.854 27.2524 1.143 25.23C0.384 23.0484 0 20.9316 0 18.8857C0 16.539 0.516 14.5165 1.548 12.8214C2.361 11.4593 3.441 10.3862 4.791 9.59613C6.144 8.80898 7.602 8.40509 9.177 8.37855C10.038 8.37855 11.166 8.64093 12.57 9.15391C13.968 9.66983 14.868 9.93221 15.261 9.93221C15.555 9.93221 16.554 9.6256 18.243 9.01534C19.842 8.4493 21.192 8.21641 22.299 8.30781C25.296 8.54659 27.546 9.70522 29.043 11.7984C26.364 13.3933 25.038 15.628 25.065 18.4965C25.089 20.7312 25.914 22.5885 27.534 24.0626C28.269 24.7465 29.088 25.2772 30 25.6516C29.802 26.2176 29.592 26.7571 29.37 27.276ZM22.5 0.701648C22.5 2.45283 21.849 4.08608 20.553 5.59847C18.987 7.39682 17.094 8.43457 15.042 8.27242C15.015 8.0631 15 7.842 15 7.6091C15 5.92867 15.744 4.13031 17.067 2.65919C17.727 1.91332 18.567 1.29422 19.584 0.801877C20.601 0.315434 21.561 0.0471551 22.464 0C22.488 0.235839 22.5 0.468752 22.5 0.701648Z" fill="black"/>
</svg>
